<svg id="Layer_1" height="512" viewBox="0 0 512 512" width="512" xmlns="http://www.w3.org/2000/svg" data-name="Layer 1"><path d="m315.864 128.08-21.914-22.1a81.18 81.18 0 0 0 2.98 111.12 80.459 80.459 0 0 0 12.281 10.147 80.17 80.17 0 0 1 -4.551-7.657 81.392 81.392 0 0 1 11.204-91.51z" fill="#d4e1f4"/><path d="m238.93 193.84-130.12 131.74 9.54 9.63 12.46 12.37 130.026-131.645z" fill="#d4e1f4"/><g fill="#0635c9"><path d="m202.591 273.054a6 6 0 1 0 -8.612-8.357l-29.116 30.01a6 6 0 1 0 8.612 8.356z"/><path d="m153.222 306.667-9.675 10.082a6 6 0 0 0 8.659 8.308l9.674-10.081a6 6 0 0 0 -8.658-8.309z"/><path d="m398.5 5.574a6 6 0 0 0 1.292 11.93 85.816 85.816 0 0 1 94.7 94.7 6 6 0 0 0 11.931 1.292 97.815 97.815 0 0 0 -107.923-107.922z"/><path d="m474.325 118.789a6.133 6.133 0 0 0 .891.066 6 6 0 0 0 5.928-5.116 72.824 72.824 0 0 0 -82.883-82.883 6 6 0 0 0 1.769 11.87 60.821 60.821 0 0 1 69.244 69.244 6 6 0 0 0 5.051 6.819z"/><path d="m393.317 63.727a6 6 0 0 0 7.252 4.405 35.8 35.8 0 0 1 43.3 43.3 6 6 0 1 0 11.657 2.847 47.8 47.8 0 0 0 -57.8-57.8 6 6 0 0 0 -4.409 7.248z"/></g><path d="m422.679 443.482-121.079-122.113a6 6 0 0 0 -8.521 0l-3.982 4.015-11.645-11.675-8.5 8.475 11.693 11.722-22.483 22.676-4.038 4.072-11.641-11.67-8.5 8.475 11.688 11.717-5.439 5.485a6 6 0 0 0 0 8.449l121.085 122.115a6 6 0 0 0 8.521 0l52.841-53.294a6 6 0 0 0 0-8.449zm-143.226-91.323 30.94 31.2-8.611 8.684-30.939-31.2zm-26.5 26.728 9.441-9.522 35.128 35.43a6 6 0 0 0 8.522 0l17.06-17.207a6 6 0 0 0 0-8.449l-35.2-35.5 9.441-9.522 93.306 94.107-44.39 44.771zm112.625 113.591-10.87-10.963 44.392-44.771 10.87 10.963z" fill="#1ae5be"/><path d="m184.809 220.829 4.367-4.4a6 6 0 0 0 0-8.449l-121.076-122.118a6 6 0 0 0 -8.521 0l-52.84 53.293a6 6 0 0 0 0 8.449l121.075 122.114a6 6 0 0 0 8.521 0l5.053-5.1 13.8 13.832 8.5-8.475-13.851-13.875 26.522-26.749 13.788 13.822 8.5-8.474zm-165.36-77.449 44.391-44.772 10.87 10.963-44.391 44.772zm130.516 95.548-31.12-31.386 8.611-8.685 31.12 31.387zm17.06-17.206-35.309-35.612a6 6 0 0 0 -8.521 0l-17.06 17.207a6 6 0 0 0 0 8.449l35.381 35.684-9.441 9.522-93.306-94.107 44.39-44.772 93.307 94.107z" fill="#1ae5be"/><path d="m131.16 442.116a6.1 6.1 0 0 0 4.253 1.884h.008a6.1 6.1 0 0 0 4.249-1.873l19.43-19.544c.114-.1.239-.2.347-.309s.21-.273.319-.4l18.076-18.144 5.292 5.416a6.077 6.077 0 0 0 4.257 1.854h.006a6.074 6.074 0 0 0 4.263-1.865l130.119-131.779a6.026 6.026 0 0 0 -.008-8.462l-20.578-20.765 11.658-11.662a85.519 85.519 0 0 0 98.289-11.921 6 6 0 0 0 .23-8.67l-52.645-53.1 23.043-23.043a16.008 16.008 0 1 0 -8.492-8.479l-23 23-52.06-52.507a6 6 0 0 0 -8.739.232 87.3 87.3 0 0 0 -14.084 94.383l-12.811 12.812-19.392-19.474a5.93 5.93 0 0 0 -4.261-1.7h-.006a5.916 5.916 0 0 0 -4.262 1.705l-130.119 131.695a5.977 5.977 0 0 0 .007 8.422l5.343 5.378-38.218 38.345a6.064 6.064 0 0 0 -.011 8.512zm256.84-321.116a4 4 0 1 1 -4 4 4 4 0 0 1 4-4zm-93.622-6.076 50.787 51.222a5.807 5.807 0 0 0 1.631 1.645l51.451 51.892a73.6 73.6 0 0 1 -97.06-6.8 75.289 75.289 0 0 1 -6.809-97.959zm-12.971 92.4a86.761 86.761 0 0 0 21.08 22.532l-9.743 9.744-21.713-21.9zm-42.469-4.949 70.131 70.733-22.078 22.353-70.132-70.733zm-30.512 30.891 70.132 70.734-91.175 92.31-5.3-5.341-64.832-65.388zm-39.037 161.934-14.189 14.242-51.049-51.487 14.193-14.239zm-73.712-28.745 51.049 51.487-11.294 11.33-51.048-51.485z" fill="#0635c9"/></svg>