<?xml version="1.0" encoding="iso-8859-1"?>
<!-- Generator: Adobe Illustrator 19.0.0, SVG Export Plug-In . SVG Version: 6.00 Build 0)  -->
<svg version="1.1" id="Capa_1" xmlns="http://www.w3.org/2000/svg" xmlns:xlink="http://www.w3.org/1999/xlink" x="0px" y="0px"
	 viewBox="0 0 512.001 512.001" style="enable-background:new 0 0 512.001 512.001;" xml:space="preserve">
<rect x="92.661" y="92.671" transform="matrix(-0.7071 0.7071 -0.7071 -0.7071 332.2772 137.6467)" style="fill:#005FE4;" width="89.939" height="89.939"/>
<rect x="76.771" y="131.06" transform="matrix(0.7071 0.7071 -0.7071 0.7071 144.23 -41.1111)" style="fill:#0050C3;" width="89.939" height="44.972"/>
<path style="fill:#00317E;" d="M163.49,360.193c-3.838,0-7.676-1.465-10.605-4.395c-5.859-5.859-5.859-15.352,0-21.211
	l48.428-48.428c5.859-5.859,15.352-5.859,21.211,0s5.859,15.352,0,21.211l-48.428,48.428
	C171.166,358.728,167.328,360.193,163.49,360.193z"/>
<path style="fill:#0050C3;" d="M296.762,226.922c-3.838,0-7.676-1.465-10.605-4.395c-5.859-5.859-5.859-15.352,0-21.211
	l48.428-48.428c5.859-5.859,15.352-5.859,21.211,0s5.859,15.352,0,21.211l-48.428,48.428
	C304.437,225.457,300.6,226.922,296.762,226.922z"/>
<g>
	<path style="fill:#3AAAFF;" d="M387.626,220.916c-3.955,0-7.778-1.567-10.605-4.395l-84.858-84.858
		c-3.12-3.12-4.702-7.456-4.351-11.836c0.366-4.395,2.651-8.408,6.24-10.972L442.543,2.801c5.947-4.263,14.136-3.604,19.321,1.597
		l42.422,42.422c5.186,5.186,5.859,13.359,1.597,19.321L399.828,214.632c-2.563,3.589-6.577,5.874-10.972,6.24
		C388.446,220.901,388.036,220.916,387.626,220.916z"/>
	<path style="fill:#3AAAFF;" d="M325.897,122.976l59.81,59.81l88.389-123.735l-24.463-24.463L325.897,122.976z"/>
	<path style="fill:#3AAAFF;" d="M57.421,508.684c-3.867,0-7.705-1.494-10.605-4.395L4.393,461.868
		c-5.186-5.186-5.859-13.359-1.597-19.321l106.055-148.491c2.563-3.589,6.577-5.874,10.972-6.24
		c4.351-0.308,8.716,1.23,11.836,4.351l84.858,84.858c3.12,3.12,4.702,7.456,4.351,11.836c-0.366,4.395-2.651,8.408-6.24,10.972
		L66.137,505.887C63.515,507.762,60.468,508.684,57.421,508.684z"/>
</g>
<path style="fill:#0095FF;" d="M34.584,449.637L59.047,474.1l123.735-88.389l-59.81-59.81L34.584,449.637z"/>
<path style="fill:#3AAAFF;" d="M396.5,396.499c-5.999,5.7-15.599,5.7-21.299,0l-25.462-25.455c-5.7-6-5.7-15.3,0-21.301
	c6-5.7,15.3-5.7,21.301,0L396.5,375.2C402.2,380.9,402.2,390.5,396.5,396.499z"/>
<path style="fill:#D3D3D8;" d="M328.439,286.143c0,0-10.499,10.499-20.999,21.301c-10.801,10.499-21.901,21.599-22.2,21.899
	c-8.701,8.401-19.801,12.299-30.901,12.299c-11.1,0-22.2-3.898-30.901-12.299c-0.298-0.3-32.699-32.701-32.699-32.701l40.8-65.099
	l9-14.7l56.1-26.1l31.8,31.8C346.14,239.944,346.14,268.743,328.439,286.143z"/>
<g>
	<path style="fill:#00F7FF;" d="M512.001,407c0,28.2-11.1,54.3-30.901,74.099C461.301,500.9,435.201,512,407.001,512
		c-8.401,0-15-6.901-15-15c0-8.401,6.599-15,15-15c20.099,0,39-7.8,53.099-21.901c14.101-14.099,21.901-33,21.901-53.099
		c0-8.401,6.599-15,15-15C505.1,392,512.001,398.599,512.001,407z"/>
	<path style="fill:#00F7FF;" d="M452.001,407c0,11.999-4.801,23.399-13.2,31.8C430.4,447.199,419,452,407.001,452
		c-8.401,0-15-6.601-15-15c0-8.401,6.599-15,15-15c3.9,0,7.8-1.5,10.499-4.501c3.001-2.699,4.501-6.599,4.501-10.499
		c0-8.401,6.599-15,15-15C445.4,392,452.001,398.599,452.001,407z"/>
</g>
<path style="fill:#3AAAFF;" d="M440.653,146.678c-3.838,0-7.676-1.465-10.605-4.395l-53.027-53.042
	c-5.859-5.859-5.859-15.352,0-21.211s15.352-5.859,21.211,0l53.027,53.042c5.859,5.859,5.859,15.352,0,21.211
	C448.329,145.213,444.491,146.678,440.653,146.678z"/>
<path style="fill:#ECECF1;" d="M158.94,74.043l-42.599,42.301L74.04,158.943c-6,5.7-15.3,5.7-21.299,0
	c-2.701-3.001-4.2-6.899-4.2-10.8c0-3.6,1.5-7.5,4.2-10.501L95.34,95.343l42.299-42.599c6-5.7,15.3-5.7,21.301,0
	C164.64,58.743,164.64,68.043,158.94,74.043z"/>
<path style="fill:#BABAC0;" d="M231.539,231.543l75.901,75.901c-10.801,10.499-21.901,21.599-22.2,21.899
	c-8.701,8.401-19.801,12.299-30.901,12.299c-11.1,0-22.2-3.898-30.901-12.299c-0.298-0.3-32.699-32.701-32.699-32.701
	L231.539,231.543z"/>
<path style="fill:#0095FF;" d="M396.5,396.499c-5.999,5.7-15.599,5.7-21.299,0l-25.462-25.455c-5.7-6-5.7-15.3,0-21.301
	L396.5,396.499z"/>
<path style="fill:#D3D3D8;" d="M95.34,95.344l21,21l-42.301,42.599c-6,5.7-15.3,5.7-21.299,0c-2.701-3.001-4.2-6.899-4.2-10.8
	c0-3.6,1.5-7.5,4.2-10.501L95.34,95.344z"/>
<g>
	<path style="fill:#00FFE7;" d="M392.001,437c0-8.401,6.599-15,15-15c3.9,0,7.8-1.5,10.499-4.501l21.301,21.301
		C430.4,447.199,419,452,407.001,452C398.6,452,392.001,445.399,392.001,437z"/>
	<path style="fill:#00FFE7;" d="M481.1,481.099C461.301,500.9,435.201,512,407.001,512c-8.401,0-15-6.901-15-15
		c0-8.401,6.599-15,15-15c20.099,0,39-7.8,53.099-21.901L481.1,481.099z"/>
</g>
<path style="fill:#ECECF1;" d="M434.64,286.143c-40.8-40.8-107.401-40.8-148.5,0c-40.8,41.1-40.8,107.701,0,148.5
	c6,6,15.3,6,21.301,0l127.2-127.2C440.64,301.444,440.64,292.144,434.64,286.143z"/>
<path style="fill:#D3D3D8;" d="M286.14,286.143l84.901,84.901l-63.6,63.6c-6,6-15.3,6-21.301,0
	C245.34,393.844,245.34,327.243,286.14,286.143z"/>
<path style="fill:#ECECF1;" d="M242.818,137.669c-16.992-17.007-46.67-16.978-63.633,0l-42.437,42.422
	c-8.496,8.496-13.184,19.805-13.184,31.831c0,12.012,4.687,23.32,13.184,31.816l53.04,53.029l106.058-106.058L242.818,137.669z"/>
<path style="fill:#D3D3D8;" d="M158.024,158.944l84.901,84.901l-53.101,52.798l-53.101-52.798c-8.399-8.701-13.2-19.801-13.2-31.8
	c0-12.001,4.801-23.401,13.2-32.1L158.024,158.944z"/>
<path style="fill:#3AAAFF;" d="M131.674,455.657c-3.838,0-7.676-1.465-10.605-4.395l-53.042-53.027
	c-5.859-5.859-5.859-15.352,0-21.211s15.352-5.859,21.211,0l53.042,53.027c5.859,5.859,5.859,15.352,0,21.211
	C139.35,454.192,135.512,455.657,131.674,455.657z"/>
<g>
</g>
<g>
</g>
<g>
</g>
<g>
</g>
<g>
</g>
<g>
</g>
<g>
</g>
<g>
</g>
<g>
</g>
<g>
</g>
<g>
</g>
<g>
</g>
<g>
</g>
<g>
</g>
<g>
</g>
</svg>
